<svg width="500" height="500" xmlns="http://www.w3.org/2000/svg">
<rect width="100%" height="100%" fill="#EEEEEE" />
<circle cx="250" cy="250" r="250"
stroke="black" stroke-width="2" fill="none" />
<circle cx="250" cy="250" r="10" fill="#00FFFF" />
<circle cx="105.414" cy="54.8654" r="10" fill="00FFFF" />
<circle cx="156.997" cy="290.974" r="10" fill="00FFFF" />
<circle cx="193.635" cy="47.4877" r="10" fill="00FFFF" />
<circle cx="324.55" cy="465.353" r="10" fill="00FFFF" />
<circle cx="54.01" cy="186.166" r="10" fill="00FFFF" />
<circle cx="377.956" cy="254.426" r="10" fill="00FFFF" />
<circle cx="315.949" cy="38.0101" r="10" fill="00FFFF" />
<circle cx="55.4169" cy="182.005" r="10" fill="00FFFF" />
<circle cx="401.963" cy="143.536" r="10" fill="00FFFF" />
<circle cx="307.242" cy="485.956" r="10" fill="00FFFF" />
<circle cx="325.825" cy="68.4321" r="10" fill="00FFFF" />
<circle cx="330.801" cy="320.013" r="10" fill="00FFFF" />
<circle cx="317.705" cy="124.985" r="10" fill="00FFFF" />
<circle cx="264.912" cy="400.242" r="10" fill="00FFFF" />
<circle cx="219.732" cy="193.811" r="10" fill="00FFFF" />
<circle cx="139.541" cy="299.499" r="10" fill="00FFFF" />
<circle cx="71.6936" cy="109.661" r="10" fill="00FFFF" />
<circle cx="325.185" cy="288.657" r="10" fill="00FFFF" />
<circle cx="91.135" cy="293.34" r="10" fill="00FFFF" />
<circle cx="87.8036" cy="289.064" r="10" fill="00FFFF" />
<circle cx="163.43" cy="345.635" r="10" fill="00FFFF" />
<circle cx="240.369" cy="103.258" r="10" fill="00FFFF" />
<circle cx="446.224" cy="370.511" r="10" fill="00FFFF" />
<circle cx="249.069" cy="495.25" r="10" fill="00FFFF" />
<circle cx="101.156" cy="427.65" r="10" fill="00FFFF" />
<circle cx="169.736" cy="455.063" r="10" fill="00FFFF" />
<circle cx="38.2309" cy="194.692" r="10" fill="00FFFF" />
<circle cx="184.771" cy="158.442" r="10" fill="00FFFF" />
<circle cx="138.468" cy="284.353" r="10" fill="00FFFF" />
<circle cx="204.737" cy="46.4176" r="10" fill="00FFFF" />
<circle cx="177.883" cy="380.546" r="10" fill="00FFFF" />
<circle cx="391.067" cy="65.6325" r="10" fill="00FFFF" />
<circle cx="131.58" cy="439.938" r="10" fill="00FFFF" />
<circle cx="215.822" cy="482.644" r="10" fill="00FFFF" />
<circle cx="317.088" cy="231.732" r="10" fill="00FFFF" />
<circle cx="166.113" cy="289.048" r="10" fill="00FFFF" />
<circle cx="363.13" cy="230.558" r="10" fill="00FFFF" />
<circle cx="413.117" cy="347.309" r="10" fill="00FFFF" />
<circle cx="219.978" cy="357.941" r="10" fill="00FFFF" />
<circle cx="372.058" cy="313.906" r="10" fill="00FFFF" />
<circle cx="249.706" cy="320.457" r="10" fill="00FFFF" />
<circle cx="56.4476" cy="228.344" r="10" fill="00FFFF" />
<circle cx="200.47" cy="249.591" r="10" fill="00FFFF" />
<circle cx="154.095" cy="190.858" r="10" fill="00FFFF" />
<circle cx="198.584" cy="105.055" r="10" fill="00FFFF" />
<circle cx="155.499" cy="151.122" r="10" fill="00FFFF" />
<circle cx="266.235" cy="425.159" r="10" fill="00FFFF" />
<circle cx="199.997" cy="147.211" r="10" fill="00FFFF" />
<circle cx="105.362" cy="272.46" r="10" fill="00FFFF" />
<circle cx="140.208" cy="324.646" r="10" fill="00FFFF" />
<circle cx="245.033" cy="434.535" r="10" fill="00FFFF" />
<circle cx="353.021" cy="254.304" r="10" fill="00FFFF" />
<circle cx="301.977" cy="9.57628" r="10" fill="00FFFF" />
<circle cx="184.922" cy="348.949" r="10" fill="00FFFF" />
<circle cx="155.44" cy="170.145" r="10" fill="00FFFF" />
<circle cx="316.677" cy="116.953" r="10" fill="00FFFF" />
<circle cx="443.201" cy="140.832" r="10" fill="00FFFF" />
<circle cx="466.824" cy="222.273" r="10" fill="00FFFF" />
<circle cx="155.884" cy="410.381" r="10" fill="00FFFF" />
<circle cx="137.74" cy="250.961" r="10" fill="00FFFF" />
<circle cx="407.436" cy="346.669" r="10" fill="00FFFF" />
<circle cx="86.0081" cy="79.6694" r="10" fill="00FFFF" />
<circle cx="218.464" cy="474.573" r="10" fill="00FFFF" />
<circle cx="83.0264" cy="105.841" r="10" fill="00FFFF" />
<circle cx="42.7714" cy="286.336" r="10" fill="00FFFF" />
<circle cx="56.8229" cy="261.545" r="10" fill="00FFFF" />
<circle cx="168.013" cy="352.818" r="10" fill="00FFFF" />
<circle cx="198.548" cy="120.977" r="10" fill="00FFFF" />
<circle cx="151.533" cy="269.672" r="10" fill="00FFFF" />
<circle cx="264.968" cy="100.388" r="10" fill="00FFFF" />
<circle cx="192.13" cy="320.332" r="10" fill="00FFFF" />
<circle cx="253.3" cy="455.367" r="10" fill="00FFFF" />
<circle cx="476.644" cy="163.466" r="10" fill="00FFFF" />
<circle cx="304.854" cy="321.828" r="10" fill="00FFFF" />
<circle cx="66.3455" cy="111.724" r="10" fill="00FFFF" />
<circle cx="107.157" cy="279.439" r="10" fill="00FFFF" />
<circle cx="19.562" cy="272.455" r="10" fill="00FFFF" />
<circle cx="148.335" cy="225.072" r="10" fill="00FFFF" />
<circle cx="203.813" cy="375.175" r="10" fill="00FFFF" />
<circle cx="411.418" cy="192.219" r="10" fill="00FFFF" />
<circle cx="395.496" cy="356.002" r="10" fill="00FFFF" />
<circle cx="365.938" cy="199.305" r="10" fill="00FFFF" />
<circle cx="436.018" cy="129.003" r="10" fill="00FFFF" />
<circle cx="339.057" cy="288.026" r="10" fill="00FFFF" />
<circle cx="204.075" cy="296.597" r="10" fill="00FFFF" />
<circle cx="75.2243" cy="246.813" r="10" fill="00FFFF" />
<circle cx="174.794" cy="17.931" r="10" fill="00FFFF" />
<circle cx="428.533" cy="169.015" r="10" fill="00FFFF" />
<circle cx="196.058" cy="79.103" r="10" fill="00FFFF" />
<circle cx="223.465" cy="380.521" r="10" fill="00FFFF" />
<circle cx="321.784" cy="126.713" r="10" fill="00FFFF" />
<circle cx="72.8871" cy="282.637" r="10" fill="00FFFF" />
<circle cx="66.0893" cy="304.829" r="10" fill="00FFFF" />
<circle cx="423.746" cy="90.3041" r="10" fill="00FFFF" />
<circle cx="235.456" cy="321.863" r="10" fill="00FFFF" />
<circle cx="378.664" cy="66.1956" r="10" fill="00FFFF" />
<circle cx="418.587" cy="306.564" r="10" fill="00FFFF" />
<circle cx="386.297" cy="181.004" r="10" fill="00FFFF" />
<circle cx="2.89945" cy="235.193" r="10" fill="00FFFF" />
<circle cx="59.7658" cy="344.316" r="10" fill="00FFFF" />
</svg>
